<svg width="46" height="46" viewBox="0 0 46 46" fill="none" xmlns="http://www.w3.org/2000/svg">
<path fill-rule="evenodd" clip-rule="evenodd" d="M33.1469 24.1304C33.1469 27.2529 31.7673 30.0517 29.5868 31.9458C29.6508 31.5689 29.6841 31.1814 29.6841 30.7861C29.6841 28.4454 28.5155 26.3787 26.7323 25.1424C25.9672 26.4955 24.5193 27.4083 22.8591 27.4083C21.199 27.4083 19.7513 26.4957 18.9862 25.1428C17.2032 26.3792 16.0349 28.4456 16.0349 30.7861C16.0349 31.1806 16.0681 31.5674 16.1319 31.9437C13.9528 30.0496 12.5742 27.2517 12.5742 24.1304C12.5742 18.4255 17.1796 13.8008 22.8605 13.8008C28.5415 13.8008 33.1469 18.4255 33.1469 24.1304ZM22.8609 26.2157C24.9913 26.2157 26.7183 24.4814 26.7183 22.3421C26.7183 20.2027 24.9913 18.4684 22.8609 18.4684C20.7306 18.4684 19.0036 20.2027 19.0036 22.3421C19.0036 24.4814 20.7306 26.2157 22.8609 26.2157Z" fill="#BCBCBC"/>
<path fill-rule="evenodd" clip-rule="evenodd" d="M27.6979 6.25737L18.3018 6.25737L19.4392 0H26.7089L27.6979 6.25737ZM7.81332 14.3652L14.4985 7.73416L9.37894 4.01747L4.20669 9.14783L7.81332 14.3652ZM27.698 39.7425H18.3019L19.2909 45.9999H26.5606L27.698 39.7425ZM38.1266 31.3558L31.4414 37.9868L36.561 41.7035L41.7332 36.5732L38.1266 31.3558ZM39.7687 27.6193V18.1836L45.9998 19.3258V26.6261L39.7687 27.6193ZM14.4361 38.091L7.77718 31.4339L4.04476 36.5321L9.19664 41.6826L14.4361 38.091ZM6.23114 18.1821V27.6178L0 26.4756V19.1754L6.23114 18.1821ZM31.6442 7.77036L38.3031 14.4274L42.0355 9.32925L36.8837 4.17877L31.6442 7.77036Z" fill="#BCBCBC"/>
<path fill-rule="evenodd" clip-rule="evenodd" d="M23.1516 41.0932C33.2287 41.0932 41.3979 32.9241 41.3979 22.8469C41.3979 12.7697 33.2287 4.60059 23.1516 4.60059C13.0744 4.60059 4.90527 12.7697 4.90527 22.8469C4.90527 32.9241 13.0744 41.0932 23.1516 41.0932ZM23.1527 36.1877C30.52 36.1877 36.4924 30.2153 36.4924 22.848C36.4924 15.4806 30.52 9.50824 23.1527 9.50824C15.7853 9.50824 9.81293 15.4806 9.81293 22.848C9.81293 30.2153 15.7853 36.1877 23.1527 36.1877Z" fill="#BCBCBC"/>
</svg>
