<svg width="46" height="46" viewBox="0 0 46 46" fill="none" xmlns="http://www.w3.org/2000/svg">
<path fill-rule="evenodd" clip-rule="evenodd" d="M33.1469 24.1309C33.1469 27.2533 31.7673 30.0522 29.5868 31.9463C29.6508 31.5693 29.6841 31.1819 29.6841 30.7866C29.6841 28.4458 28.5155 26.3792 26.7323 25.1428C25.9672 26.496 24.5193 27.4088 22.8591 27.4088C21.199 27.4088 19.7513 26.4962 18.9862 25.1433C17.2032 26.3797 16.0349 28.4461 16.0349 30.7866C16.0349 31.1811 16.0681 31.5679 16.1319 31.9442C13.9528 30.0501 12.5742 27.2522 12.5742 24.1309C12.5742 18.426 17.1796 13.8013 22.8605 13.8013C28.5415 13.8013 33.1469 18.426 33.1469 24.1309ZM22.8609 26.2162C24.9913 26.2162 26.7183 24.4819 26.7183 22.3425C26.7183 20.2032 24.9913 18.4689 22.8609 18.4689C20.7306 18.4689 19.0036 20.2032 19.0036 22.3425C19.0036 24.4819 20.7306 26.2162 22.8609 26.2162Z" fill="#575757"/>
<path fill-rule="evenodd" clip-rule="evenodd" d="M27.6979 6.25737L18.3018 6.25737L19.4392 0H26.7089L27.6979 6.25737ZM7.81332 14.3652L14.4985 7.73416L9.37894 4.01747L4.20669 9.14783L7.81332 14.3652ZM27.698 39.7425H18.3019L19.2909 45.9999H26.5606L27.698 39.7425ZM38.1266 31.3558L31.4414 37.9868L36.561 41.7035L41.7332 36.5732L38.1266 31.3558ZM39.7687 27.6193V18.1836L45.9998 19.3258V26.6261L39.7687 27.6193ZM14.4361 38.091L7.77718 31.4339L4.04476 36.5321L9.19664 41.6826L14.4361 38.091ZM6.23114 18.1821V27.6178L0 26.4756V19.1754L6.23114 18.1821ZM31.6442 7.77036L38.3031 14.4274L42.0355 9.32925L36.8837 4.17877L31.6442 7.77036Z" fill="#575757"/>
<path fill-rule="evenodd" clip-rule="evenodd" d="M23.1516 41.0937C33.2287 41.0937 41.3979 32.9245 41.3979 22.8474C41.3979 12.7702 33.2287 4.60107 23.1516 4.60107C13.0744 4.60107 4.90527 12.7702 4.90527 22.8474C4.90527 32.9245 13.0744 41.0937 23.1516 41.0937ZM23.1527 36.1882C30.52 36.1882 36.4924 30.2158 36.4924 22.8485C36.4924 15.4811 30.52 9.50873 23.1527 9.50873C15.7853 9.50873 9.81293 15.4811 9.81293 22.8485C9.81293 30.2158 15.7853 36.1882 23.1527 36.1882Z" fill="#575757"/>
</svg>
